<svg xmlns="http://www.w3.org/2000/svg" viewBox="0 0 100.53 28.66"><defs><style>.cls-1{fill:#0075f6;stroke:#fff;stroke-miterlimit:10;}.cls-2{fill:#fff;}</style></defs><g id="Layer_2" data-name="Layer 2"><g id="Layer_1-2" data-name="Layer 1"><path class="cls-1" d="M.5,28V1.66H8V21.09H21.62V28Z"/><path class="cls-1" d="M43.6,27.74A28.29,28.29,0,0,1,37.17,27a18.83,18.83,0,0,1-5.11-1.88L34.94,19a18.69,18.69,0,0,0,4.21,1.68,17.27,17.27,0,0,0,4.52.63,9.77,9.77,0,0,0,2-.17,2.28,2.28,0,0,0,1.07-.46,1,1,0,0,0,.34-.74,1.19,1.19,0,0,0-.79-1.08,9,9,0,0,0-2.1-.67l-2.86-.57a30.32,30.32,0,0,1-3.11-.81,12.26,12.26,0,0,1-2.88-1.34,6.32,6.32,0,0,1-2.1-2.17,6.54,6.54,0,0,1-.79-3.37c0-1.56-19.57-3-18.65-4.26A9.38,9.38,0,0,1,18,2.54a17.68,17.68,0,0,1,6.83-1.15c1.79,0,23.58.18,25.32.54a17.43,17.43,0,0,1,4.69,1.65L52.11,9.74A21.22,21.22,0,0,0,48.3,8.33a14.46,14.46,0,0,0-3.57-.46,7.87,7.87,0,0,0-2,.21,2.27,2.27,0,0,0-1.08.58,1.17,1.17,0,0,0-.32.79,1.16,1.16,0,0,0,.79,1,9.13,9.13,0,0,0,2.1.63l2.88.54a23.77,23.77,0,0,1,3.12.79A12.4,12.4,0,0,1,53,13.77a6.08,6.08,0,0,1,2.9,5.47,7.15,7.15,0,0,1-1.38,4.23,9.59,9.59,0,0,1-4.11,3.1A17.39,17.39,0,0,1,43.6,27.74Z"/><path class="cls-1" d="M100,2v25.2H91.11V17.88H82v9.28H61.93c-3.06,0-5.54-3.05-5.54-6.81V8c0-3.32,2.18-6,4.88-6H82v8.93h9.12V2Z"/><path class="cls-2" d="M64,27.74a17.43,17.43,0,0,1-5.88-1,13.71,13.71,0,0,1-4.69-2.72,12.21,12.21,0,0,1-3.09-4.17,12.77,12.77,0,0,1-1.09-5.33,12.77,12.77,0,0,1,1.09-5.33A12.3,12.3,0,0,1,53.4,5.06a13.87,13.87,0,0,1,4.69-2.72,18.9,18.9,0,0,1,12.78.34,12.73,12.73,0,0,1,5,3.75L70.2,11.21A8.9,8.9,0,0,0,67.61,9a6.5,6.5,0,0,0-3.19-.78,7.22,7.22,0,0,0-2.53.43,5.38,5.38,0,0,0-2,1.26,5.75,5.75,0,0,0-1.27,2,7.22,7.22,0,0,0-.45,2.61,7.22,7.22,0,0,0,.45,2.61,5.66,5.66,0,0,0,1.27,2,5.38,5.38,0,0,0,2,1.26,7,7,0,0,0,2.53.43,6.6,6.6,0,0,0,3.19-.77,9.1,9.1,0,0,0,2.59-2.18l5.64,4.79a13.06,13.06,0,0,1-5,3.72A17.05,17.05,0,0,1,64,27.74Z"/><path class="cls-1" d="M22.36,28.16a18,18,0,0,1-6.17-1,14.43,14.43,0,0,1-4.88-2.89A13.14,13.14,0,0,1,7,14.33,13.07,13.07,0,0,1,8.1,8.8a13.21,13.21,0,0,1,3.21-4.39,14.43,14.43,0,0,1,4.88-2.89,17.88,17.88,0,0,1,6.13-1,17.87,17.87,0,0,1,6.15,1,14.63,14.63,0,0,1,4.86,2.89A13.49,13.49,0,0,1,36.54,8.8a13.22,13.22,0,0,1,1.15,5.53,13.14,13.14,0,0,1-4.36,9.92,14.63,14.63,0,0,1-4.86,2.89A17.77,17.77,0,0,1,22.36,28.16Z"/><path class="cls-2" d="M27.35,26.6c-.76-.21-.83-.11-1.43-.28a8.8,8.8,0,0,1-1.14-.47l-.22-.08c-.24-.06-.33-.18-.27-.42a1.7,1.7,0,0,0,0-.4v-.28a2.29,2.29,0,0,0,.14-.27c0-.07.06-.14.08-.2s-.05-.24-.07-.35l-.16-.68c-.11-.47-.23-.93-.36-1.39,0-.15-.09-.3-.15-.46s-.18-.58-.23-.86a4.28,4.28,0,0,1,0-.8c.13-.42.26-.84.37-1.24,0-.19,0-.37,0-.55-.12-.44-.25-.88-.38-1.31s0-.65-.05-1a2,2,0,0,0,0-.42c0-.23-.07-.45-.11-.68s-.18-.47.17-.65c0,.18.09.33.13.49s.11.55.16.82.09.38.14.56a1.85,1.85,0,0,1,.11,1.71c0,.07,0,.15-.05.23a3.62,3.62,0,0,0,.67.3.42.42,0,0,0,.51-.44c0-.46-.05-.91-.08-1.37s-.05-.82-.08-1.24-.17-1-.29-1.46-.34-1.19-.51-1.77a.08.08,0,0,1,0,0L23.68,11c-.28-.17-.55-.35-.82-.54a.31.31,0,0,0-.08-.15c-.35-.31-.28-.6-.06-.92a.27.27,0,0,1,.06-.1l.31-.61c0-.07,0-.13,0-.2a1.45,1.45,0,0,0-1.82-.88.45.45,0,0,0-.46.39,4.32,4.32,0,0,1-.29.62.19.19,0,0,0,0,.08V9.2c0,.2,0,.4,0,.6a4,4,0,0,0,.09.42c.22.12.16.24,0,.32a2.11,2.11,0,0,1-.38.11,1.26,1.26,0,0,0-.93.75l-.45,1.18c-.11.2-.22.39-.31.6a1.09,1.09,0,0,0,0,.36c0,.1.1.21.08.3-.11.43-.24.86-.35,1.28a3.85,3.85,0,0,0-.08.49c-.09.68-.2,1.36-.3,2.05.16.22.31.45.46.68l.4-.09c0,.26,0,.48,0,.7a1.94,1.94,0,0,1-.08,1.4,8.48,8.48,0,0,0-.24.9c0,.25-.07.49-.11.73a1.18,1.18,0,0,0,.12.6.64.64,0,0,1-.36.88l-.27.39c.43.32.33.71.19,1.1s-.53.56-.81.83c-.56.14-1.11.3-1.69.43s-1.08.22-1.63.33a19.14,19.14,0,0,0,7.16,1.86c3.83.22,7.69-.76,7.67-1.25C28.6,26.92,27.77,26.71,27.35,26.6Zm-6-1.81a10.22,10.22,0,0,0-1.57,0c0-.23.05-.5.07-.77-.21-.36,0-.67.14-1l.21-1.19c0-.21.08-.44.12-.67.18-.49.37-1,.56-1.48.21-.19.28,0,.32.11.2.66.39,1.31.58,2a.41.41,0,0,1,.05.09,5.84,5.84,0,0,1,.44,1.7c.09.2.2.41.29.62s.16.68.26,1.08A10.8,10.8,0,0,0,21.39,24.79Z"/></g></g></svg>