<?xml version="1.0" encoding="utf-8"?>
<!-- Generator: Adobe Illustrator 26.0.1, SVG Export Plug-In . SVG Version: 6.00 Build 0)  -->
<svg version="1.1" id="Layer_1" xmlns="http://www.w3.org/2000/svg" xmlns:xlink="http://www.w3.org/1999/xlink" x="0px" y="0px"
	 viewBox="0 0 1280 770" style="enable-background:new 0 0 1280 770;" xml:space="preserve">
<style type="text/css">
	.st0{fill:#EA0600;}
	.st1{fill:#F40303;}
	.st2{fill:#FF0000;}
	.st3{fill:#EF0000;}
	.st4{fill:#DD0000;}
</style>
<g transform="translate(0.000000,770.000000) scale(0.100000,-0.100000)">
	<path d="M4150,7693c-28-11-59-46-70-78c-10-31-11-32-48-22c-48,13-87,3-118-28l-24-24v25c0,53-61,114-114,114c-35,0-85-30-100-59
		c-54-103,51-209,154-156c16,8,34,23,39,32c9,15,10,14,11-10c0-57,60-117,115-117c52,0,115,60,115,109c0,21,1,21,25,5
		c39-25,103-13,138,26c60,67,20,176-68,185C4183,7698,4158,7697,4150,7693z"/>
	<path d="M5057,7560c-33-26-48-79-36-124c23-82,126-107,189-45c25,26,30,38,30,79s-5,53-31,79s-38,31-78,31
		C5097,7580,5075,7574,5057,7560z"/>
	<path d="M8374,7520c-37-15-64-59-64-104c0-103,117-151,191-80C8592,7423,8492,7568,8374,7520z"/>
	<path d="M4842,7494c-40-20-62-60-62-110c0-52,53-104,107-104c49,0,96,29,112,69C5039,7444,4934,7541,4842,7494z"/>
	<path d="M3423,7484c-33-16-63-66-63-104c0-55,57-110,115-110c119,0,158,171,50,216C3482,7504,3463,7503,3423,7484z"/>
	<path d="M9884,7416c-28-28-34-42-34-75c0-76,80-136,148-110c65,25,97,90,72,150c-19,45-56,69-107,69C9925,7450,9913,7445,9884,7416
		z"/>
	<path d="M4374,7420c-37-15-64-59-64-104c0-103,117-151,192-80c28,28,28,28,28,5c0-13,15-38,34-57c27-27,42-34,73-34h38l-3-45
		c-4-40,0-49,31-80c30-30,42-35,80-35c132,0,159,172,34,219c-16,6-39,8-52,5c-22-6-24-4-16,23c11,38-3,84-35,114
		c-35,33-112,34-146,2c-30-28-38-29-38-4c0,10-16,33-35,50C4458,7431,4418,7438,4374,7420z"/>
	<path d="M3664,7346c-28-28-34-42-34-76c0-53,29-95,76-110c63-21,125,13,145,79c22,73-34,141-117,141C3706,7380,3690,7372,3664,7346
		z"/>
	<path d="M5024,7276c-80-36-98-132-35-188c68-61,176-22,187,67C5186,7242,5101,7310,5024,7276z"/>
	<path d="M4190,7243c-55-38-72-91-46-145c54-114,216-73,216,54C4360,7234,4257,7289,4190,7243z"/>
	<path d="M5239,7232c-45-40-52-106-15-149c34-41,83-58,122-43c67,26,99,90,74,151C5390,7264,5298,7285,5239,7232z"/>
	<path d="M2543,7238c-78-21-109-119-55-178c53-60,136-55,179,9c27,39,29,71,9,110C2649,7231,2599,7253,2543,7238z"/>
	<path d="M3504,7176c-44-19-64-53-64-104c0-37,6-50,34-78c38-38,85-45,134-20c48,25,70,88,48,139C3631,7174,3562,7202,3504,7176z"/>
	<path d="M8893,7150c-33-19-63-66-63-95c0-32,33-86,61-101l29-14l-31-28c-45-40-51-106-15-149c54-64,134-62,185,3
		c40,51,11,150-49,169c-15,5-12,11,16,39s34,41,34,78c0,50-18,82-60,103C8961,7175,8931,7174,8893,7150z"/>
	<path d="M4445,7126c-113-49-76-216,47-216c32,0,47,7,74,34c28,28,34,41,34,78c0,52-21,85-66,104C4494,7143,4484,7143,4445,7126z"/>
	<path d="M11472,7110c-104-63-38-228,82-206c72,14,111,90,83,159C11610,7126,11535,7148,11472,7110z"/>
	<path d="M11724,7091c-38-17-64-60-64-108c0-38,5-50,34-79c27-27,42-34,74-34c79,0,138,83,109,152c-8,18-24,41-35,51
		C11818,7095,11755,7104,11724,7091z"/>
	<path d="M3944,7056c-29-29-34-41-34-79c0-132,172-159,219-35c27,72-31,148-112,148C3986,7090,3971,7083,3944,7056z"/>
	<path d="M11954,7056c-29-29-34-41-34-79c0-75,61-127,133-113c46,9,97,67,97,111c0,31-30,81-59,98C12043,7101,11993,7095,11954,7056
		z"/>
	<path d="M6291,7047c-40-20-66-64-65-109c1-35,8-48,38-75c51-47,104-47,152,1c28,28,34,41,34,78c0,50-18,82-60,103
		C6355,7063,6323,7064,6291,7047z"/>
	<path d="M10410,7043c-60-18-90-56-90-113c0-69,45-110,119-110c77,0,128,79,98,152C10516,7022,10454,7057,10410,7043z"/>
	<path d="M4870,7013c-62-55-47-153,28-189c43-20,87-12,123,22l27,25l6-34c16-87,128-122,191-59c74,73,23,192-82,192
		c-36,0-50-6-74-29c-26-26-29-27-29-10c0,28-26,75-52,93C4971,7050,4905,7045,4870,7013z"/>
	<path d="M724,6986c-38-38-45-86-19-135c14-28,68-61,100-61c43,0,102,51,111,95c13,72-43,135-122,135C766,7020,750,7012,724,6986z"
		/>
	<path d="M10782,6974c-27-19-52-65-52-96c0-30,33-84,61-99c13-6,41-12,63-12c33,0,45,6,73,36c47,52,47,105-1,153c-28,28-41,34-78,34
		C10824,6990,10794,6983,10782,6974z"/>
	<path d="M11210,6973c-60-18-90-56-90-113c0-68,45-110,116-110c79,0,131,80,101,152C11316,6952,11254,6987,11210,6973z"/>
	<path d="M2102,6954c-27-19-52-65-52-96c0-59,81-127,133-113c67,19,97,56,97,121c0,28-8,44-34,70c-28,28-41,34-78,34
		C2144,6970,2114,6963,2102,6954z"/>
	<path d="M4183,6941c-40-25-53-49-53-101c0-34,6-48,34-76c46-46,100-48,149-4c41,35,52,79,33,123C4317,6952,4243,6979,4183,6941z"/>
	<path d="M4650,6933c-74-38-89-126-30-185c23-23,37-28,75-28c90,0,144,93,99,169C4763,6942,4704,6960,4650,6933z"/>
	<path d="M3218,6924c-53-28-72-98-43-154c40-78,160-78,200,0C3428,6873,3320,6980,3218,6924z"/>
	<path d="M8604,6924c-57-28-79-96-49-154c21-41,53-60,100-60c121,0,158,163,49,215C8664,6944,8643,6944,8604,6924z"/>
	<path d="M9660,6909c-66-27-93-88-67-152c18-42,60-67,113-67c28,0,44,8,70,34s34,42,34,70c0,51-23,90-64,110
		C9707,6922,9695,6923,9660,6909z"/>
	<path d="M489,6885c-58-31-71-114-28-169c64-82,199-35,199,69C660,6877,570,6929,489,6885z"/>
	<path d="M11503,6869c-43-13-73-57-73-109c0-57,50-110,104-110c88,0,144,77,112,153C11622,6861,11564,6887,11503,6869z"/>
	<path d="M4425,6856c-42-18-65-57-65-107c0-56,50-109,104-109c52,0,90,23,111,67c16,33,16,41,4,77C4555,6851,4485,6884,4425,6856z"
		/>
	<path d="M995,6850c-33-13-65-55-71-92c-12-69,44-128,122-128c51,0,104,53,104,104C1150,6821,1069,6881,995,6850z"/>
	<path d="M9340,6849c-63-26-94-91-70-150c19-45,56-69,107-69c38,0,50,5,79,34c26,26,34,42,34,70c0,51-23,90-64,110
		C9387,6862,9375,6863,9340,6849z"/>
	<path d="M11754,6816c-26-26-34-42-34-70c0-52,23-90,66-111c31-14,43-15,75-6c66,20,100,82,79,146c-15,45-61,75-113,75
		C11796,6850,11781,6843,11754,6816z"/>
	<path d="M10158,6824c-76-41-74-159,2-199c57-29,121-10,154,45C10372,6769,10259,6880,10158,6824z"/>
	<path d="M10524,6830c-88-35-84-173,5-210c85-35,179,50,151,136C10658,6823,10588,6856,10524,6830z"/>
	<path d="M4840,6767c-13-7-35-28-48-47c-33-48-25-94,24-139c33-30,41-33,82-28c114,13,143,160,42,212C4905,6783,4873,6784,4840,6767
		z"/>
	<path d="M2734,6736c-26-26-34-42-34-70c0-73,47-121,116-119c75,2,126,73,105,144c-16,52-53,79-108,79
		C2775,6770,2763,6765,2734,6736z"/>
	<path d="M9854,6750c-36-14-64-59-64-102c0-104,122-155,193-80c36,38,43,81,22,126C9978,6750,9914,6774,9854,6750z"/>
	<path d="M10990,6722c-73-74-26-196,76-196c68,0,114,48,114,120c0,28-8,44-34,70c-29,29-41,34-81,34
		C11027,6750,11013,6745,10990,6722z"/>
	<path d="M750,6723c-31-12-70-58-76-90c-20-106,106-177,187-105c24,21,32,39,36,74c5,41,2,49-28,82C835,6721,785,6737,750,6723z"/>
	<path d="M9034,6676c-27-27-34-42-34-74c0-105,136-156,200-75c41,53,38,106-10,154c-23,24-37,29-75,29
		C9075,6710,9063,6705,9034,6676z"/>
	<path d="M11292,6687c-54-30-73-109-39-161c63-95,207-51,207,64c0,34-6,48-34,76c-27,27-42,34-72,34
		C11332,6699,11305,6694,11292,6687z"/>
	<path d="M1188,6674c-76-41-74-159,2-199c59-31,126-10,154,49c20,42,20,59,1,100C1317,6683,1246,6706,1188,6674z"/>
	<path d="M8790,6683c-30-11-70-57-76-88c-21-112,122-181,199-95C8988,6584,8896,6722,8790,6683z"/>
	<path d="M10744,6656c-38-38-45-86-19-135c19-37,77-65,119-57c76,14,117,109,77,174c-23,36-55,52-108,52
		C10786,6690,10770,6682,10744,6656z"/>
	<path d="M2392,6664c-32-16-62-58-62-87c0-10-13-13-55-9c-52,4-56,3-90-31c-27-27-35-43-35-71c0-72,46-120,114-120
		c45,0,85,28,104,73c16,37,16,37,67,33c45-4,54-1,82,25c56,53,53,131-7,174C2473,6678,2430,6683,2392,6664z"/>
	<path d="M7528,6660c-75-58-55-165,36-200c42-16,81-4,116,36c44,50,42,104-4,150c-29,29-41,34-79,34C7568,6680,7544,6673,7528,6660z
		"/>
	<path d="M8490,6664c-35-25-48-44-56-80c-10-54,37-119,93-130c106-20,177,106,105,187C8597,6680,8529,6691,8490,6664z"/>
	<path d="M4249,6655c-50-27-67-116-31-164c62-84,202-41,205,62C4426,6645,4331,6700,4249,6655z"/>
	<path d="M9543,6655c-111-48-75-215,47-215c68,0,110,45,110,118c0,47-22,80-66,98C9593,6673,9584,6673,9543,6655z"/>
	<path d="M5070,6653c-30-11-70-57-76-88c-13-72,43-135,122-135c51,0,104,53,104,104C5220,6619,5143,6680,5070,6653z"/>
	<path d="M234,6616c-106-106,49-263,157-160c76,73,22,194-86,194C276,6650,260,6642,234,6616z"/>
	<path d="M4524,6606c-26-26-34-42-34-71c0-53,27-92,77-111c39-15,44-15,80,2c77,39,93,126,33,186c-23,23-37,28-75,28
		C4565,6640,4553,6635,4524,6606z"/>
	<path d="M11613,6610c-29-12-63-67-63-103c0-67,70-125,134-113c42,8,85,54,92,98C11791,6579,11699,6645,11613,6610z"/>
	<path d="M1564,6576c-23-23-34-43-34-64v-30l-45,17c-43,15-47,15-83-4c-20-11-46-36-56-56c-40-75,17-159,108-159c50,0,106,52,106,99
		c0,29,13,41,24,22c10-15,65-21,94-10c65,25,97,90,72,150c-19,45-56,69-107,69C1605,6610,1593,6605,1564,6576z"/>
	<path d="M10289,6585c-50-27-67-116-31-164c10-14,36-32,58-40c74-26,145,26,146,107c1,68-45,112-115,112
		C10329,6599,10303,6593,10289,6585z"/>
	<path d="M11905,6581c-27-11-51-40-65-75c-15-39,2-88,43-122c26-22,38-25,76-21c113,13,142,160,41,212
		C11968,6591,11936,6593,11905,6581z"/>
	<path d="M3200,6567c-13-7-35-28-48-47c-33-48-25-94,24-139c33-30,41-33,82-28c114,13,143,160,42,212C3265,6583,3233,6584,3200,6567
		z"/>
	<path d="M484,6536c-28-28-34-42-34-76s6-48,34-76c29-29,41-34,81-34c38,0,52,5,75,29c52,51,52,111,0,162c-23,24-37,29-75,29
		C525,6570,513,6565,484,6536z"/>
	<path d="M9272,6557c-34-19-55-55-56-96c-2-77,72-134,145-112c52,16,79,53,79,108c0,38-5,50-34,79c-27,27-42,34-72,34
		C9312,6569,9285,6564,9272,6557z"/>
	<path d="M10040,6559c-63-26-94-91-70-150c19-45,56-69,107-69c38,0,50,5,79,34c26,26,34,42,34,71c0,48-26,91-66,110
		C10087,6572,10075,6573,10040,6559z"/>
	<path d="M10577,6550c-63-19-94-76-77-140c18-68,95-100,165-68c60,27,74,125,26,177c-16,17-36,31-44,31c-9,0-21,2-29,4
		C10611,6556,10592,6554,10577,6550z"/>
	<path d="M958,6534c-53-28-72-98-43-154c40-78,160-78,200,0C1168,6483,1060,6590,958,6534z"/>
	<path d="M4788,6494c-76-41-74-159,2-199c59-31,126-10,154,49c20,42,20,59,1,100C4917,6503,4846,6526,4788,6494z"/>
	<path d="M9763,6503c-12-2-36-20-53-39c-44-50-42-104,4-150c29-29,41-34,79-34c132,0,159,172,34,219c-16,6-31,10-35,10
		C9788,6508,9775,6505,9763,6503z"/>
	<path d="M1814,6456c-29-29-34-41-34-79c0-54,26-91,76-107c63-21,125,13,145,79c21,72-36,141-116,141C1856,6490,1840,6482,1814,6456
		z"/>
	<path d="M11139,6447c-21-14-39-38-48-63c-12-36-12-44,4-77c21-44,59-67,111-67c54,0,104,53,104,109c0,51-24,89-67,107
		C11198,6475,11178,6474,11139,6447z"/>
	<path d="M8943,6430c-40-24-53-48-53-98c0-99,122-147,194-76c34,35,42,83,22,126C9075,6446,9004,6467,8943,6430z"/>
	<path d="M11408,6420c-79-62-49-183,51-205c65-14,131,46,131,120c0,29-8,45-34,71c-29,29-41,34-79,34
		C11448,6440,11424,6433,11408,6420z"/>
	<path d="M4242,6414c-27-19-52-65-52-96c0-59,81-127,133-113c67,19,97,56,97,121c0,28-8,44-34,70c-28,28-41,34-78,34
		C4284,6430,4254,6423,4242,6414z"/>
	<path d="M8604,6396c-29-29-34-41-34-81c0-38,5-52,28-75c37-37,89-47,131-26c111,58,72,216-54,216C8646,6430,8630,6422,8604,6396z"
		/>
	<path d="M10903,6416c-38-17-63-61-63-112s53-104,104-104c53,0,95,25,113,67C11097,6364,10999,6459,10903,6416z"/>
	<path d="M734,6391c-84-51-57-188,42-207c42-8,100,20,119,57c26,49,19,97-19,135C836,6416,784,6422,734,6391z"/>
	<path d="M8038,6394c-56-30-73-104-38-161c40-66,150-66,191,1C8253,6336,8143,6451,8038,6394z"/>
	<path d="M8334,6391c-60-36-68-124-17-175c72-73,193-20,193,84C8510,6387,8411,6438,8334,6391z"/>
	<path d="M4553,6373c-34-7-83-68-83-104c0-69,49-119,117-119c61,0,103,39,110,102c5,42,2,49-28,81C4635,6368,4597,6382,4553,6373z"
		/>
	<path d="M1160,6342c-73-74-28-192,74-195c68-2,116,47,116,118c0,29-8,45-34,71c-29,29-41,34-81,34C1197,6370,1183,6365,1160,6342z"
		/>
	<path d="M3434,6336c-48-48-48-101-1-153c28-30,40-36,73-36c51,0,80,16,104,56c24,38,25,68,5,107c-21,42-53,60-103,60
		C3475,6370,3462,6364,3434,6336z"/>
	<path d="M9500,6353c-74-38-89-126-30-185c23-23,37-28,75-28c40,0,52,5,81,34c37,37,45,82,22,130C9624,6357,9555,6380,9500,6353z"/>
	<path d="M11775,6361c-76-32-90-140-24-195c46-39,101-36,145,8c28,28,34,41,34,78c0,50-18,82-60,103
		C11838,6371,11806,6373,11775,6361z"/>
	<path d="M308,6344c-53-28-72-98-43-154c40-78,160-78,200,0C518,6293,410,6400,308,6344z"/>
	<path d="M9196,6299c-44-38-54-83-32-131c29-61,96-84,156-53c41,21,60,53,60,100C9380,6315,9270,6365,9196,6299z"/>
	<path d="M10134,6310c-60-24-85-121-44-172c41-53,125-61,168-15c51,54,49,120-5,167C10218,6321,10177,6328,10134,6310z"/>
	<path d="M10393,6305c-80-34-82-159-3-200c77-40,170,14,170,100c0,59-55,116-112,115C10435,6319,10411,6313,10393,6305z"/>
	<path d="M10683,6305c-84-36-92-159-12-200c49-26,97-19,135,19c28,28,34,41,34,78c0,52-21,85-66,104
		C10733,6323,10724,6323,10683,6305z"/>
	<path d="M58,6294c-54-29-73-101-41-155c17-28,67-59,96-59c14,0,14-3,1-27c-60-117,87-229,180-137c32,33,43,84,25,125
		c-14,35-62,69-96,69c-27,0-28,7-8,34c8,11,15,33,15,48C230,6281,136,6337,58,6294z"/>
	<path d="M1634,6276c-26-26-34-42-34-70c0-53,25-95,67-113c47-19,92-10,127,26c73,77,20,191-90,191C1676,6310,1660,6302,1634,6276z"
		/>
	<path d="M4929,6296c-36-21-63-79-55-120c8-42,54-85,98-92c101-17,169,110,100,187C5039,6308,4972,6320,4929,6296z"/>
	<path d="M9863,6275c-83-36-91-152-13-198c47-28,97-22,136,17c28,28,34,41,34,78c0,50-18,82-60,103C9925,6293,9905,6293,9863,6275z"
		/>
	<path d="M2002,6232c-38-35-48-79-28-125c48-115,216-82,216,42c0,69-44,111-118,111C2042,6260,2024,6253,2002,6232z"/>
	<path d="M528,6234c-63-33-75-114-27-168c53-61,142-55,182,13C742,6179,631,6290,528,6234z"/>
	<path d="M982,6217c-34-19-55-55-56-96c-2-77,72-134,145-112c52,16,79,53,79,108c0,38-5,50-34,79c-27,27-42,34-72,34
		C1022,6229,995,6224,982,6217z"/>
	<path d="M1424,6215c-106-54-69-215,49-215c49,0,81,19,102,60c24,47,19,86-17,125C1519,6227,1470,6238,1424,6215z"/>
	<path d="M2344,6216c-45-20-74-62-74-108c0-32,7-47,34-74c29-29,41-34,81-34c139,0,152,193,15,223C2386,6226,2361,6223,2344,6216z"
		/>
	<path d="M8758,6204c-100-54-57-214,57-214c55,0,115,61,115,115c0,31-30,81-59,98C8836,6224,8794,6224,8758,6204z"/>
	<path d="M4322,6187c-34-20-55-55-55-98c0-78,71-132,144-110c52,16,79,53,79,108c0,38-5,50-34,79c-27,27-42,34-72,34
		C4362,6199,4335,6194,4322,6187z"/>
	<path d="M11238,6180c-14-10-31-33-37-49l-13-29l-35,24c-41,28-60,29-108,10c-33-14-65-59-65-91c0-14-4-14-25,4
		c-55,42-134,32-170-23c-35-53-17-134,37-162c49-25,96-18,134,20c19,19,34,43,34,55c0,26,5,26,37,1c52-41,143-16,169,46l15,35l25-20
		c37-29,78-35,116-17c110,53,75,216-46,216C11278,6200,11254,6193,11238,6180z"/>
	<path d="M4709,6173c-127-79-22-267,111-198c34,18,60,62,60,102C4879,6161,4780,6217,4709,6173z"/>
	<path d="M2974,6170c-60-24-85-121-44-172c62-79,183-49,205,51C3153,6132,3057,6204,2974,6170z"/>
	<path d="M2638,6150c-75-58-55-165,36-200c65-24,146,37,146,112c0,32-7,47-34,74c-29,29-41,34-79,34C2678,6170,2654,6163,2638,6150z
		"/>
	<path d="M9028,6132c-38-23-61-75-54-117c8-42,49-83,92-91c120-22,186,143,82,206C9108,6154,9064,6155,9028,6132z"/>
	<path d="M8412,6112c-75-70-30-192,72-195c92-3,147,93,99,173C8549,6147,8462,6159,8412,6112z"/>
	<path d="M9655,6131c-27-12-51-40-65-75c-15-39,2-88,43-122c26-22,38-25,76-21c132,15,137,209,6,222C9693,6138,9666,6136,9655,6131z
		"/>
	<path d="M790,6109c-64-26-94-91-70-150c19-45,56-69,107-69c88,0,142,94,97,169C896,6106,837,6128,790,6109z"/>
	<path d="M8070,6102c-72-36-86-125-28-183c24-24,38-29,75-29c43,0,45-1,30-18c-28-31-39-72-27-107c23-69,97-102,158-71
		c43,22,62,54,62,104c0,37-6,50-35,79c-31,31-40,35-79,32l-44-4l24,28c47,55,24,145-43,173C8121,6124,8112,6124,8070,6102z"/>
	<path d="M1823,6085c-82-36-90-160-11-201c56-29,134-8,157,43c16,35,13,95-5,122c-16,23-71,51-96,51C1861,6099,1841,6093,1823,6085z
		"/>
	<path d="M7830,6082c-22-10-42-32-54-55c-37-77,17-157,108-157c53,0,106,52,106,104s-25,95-65,112C7881,6104,7872,6104,7830,6082z"
		/>
	<path d="M9342,6073c-39-19-62-59-62-109c0-28,8-44,34-70s42-34,70-34c133,0,171,155,54,216C9403,6094,9383,6093,9342,6073z"/>
	<path d="M6568,6054c-76-41-74-159,2-199c78-41,171,15,170,102C6739,6041,6643,6095,6568,6054z"/>
	<path d="M10570,6056c-40-13-80-66-80-106s40-93,80-106c45-15,88-2,123,36C10767,5962,10678,6091,10570,6056z"/>
	<path d="M1246,6050c-66-20-101-90-76-151c19-45,56-69,107-69c92,0,147,105,91,175c-17,22-77,58-90,54
		C1276,6059,1262,6054,1246,6050z"/>
	<path d="M10003,6046c-38-17-63-61-63-112c0-52,53-104,107-104c87,0,142,76,110,152C10131,6044,10063,6072,10003,6046z"/>
	<path d="M6904,6016c-26-26-34-42-34-70c0-52,23-90,65-110c43-21,84-14,125,20c79,67,27,194-80,194C6946,6050,6932,6044,6904,6016z"
		/>
	<path d="M10250,6023c-61-55-48-153,26-188c68-32,148,10,160,87C10453,6023,10326,6091,10250,6023z"/>
	<path d="M4506,6020c-63-19-96-83-76-145c16-49,53-75,107-75c38,0,50,5,79,34c26,26,34,42,34,70c0,55-23,91-70,110
		c-22,9-41,16-43,15C4536,6029,4522,6024,4506,6020z"/>
	<path d="M3468,5994c-54-29-73-101-41-155c17-29,67-59,97-59c35,0,85,30,100,59C3678,5943,3570,6050,3468,5994z"/>
	<path d="M4210,5994c-63-22-90-57-90-120c0-28,8-44,34-70c29-29,41-34,79-34c139,0,154,196,17,224C4236,5997,4218,5997,4210,5994z"
		/>
	<path d="M1580,5983c-62-19-90-56-90-119c0-54,53-104,110-104c140,0,158,194,20,223C1606,5986,1588,5986,1580,5983z"/>
	<path d="M2114,5971c-37-22-59-78-49-119c3-15,18-39,32-54c73-76,193-22,193,88c0,28-8,44-34,70C2216,5996,2164,6002,2114,5971z"/>
	<path d="M7574,5974c-81-40-84-158-4-199c57-30,127-10,155,45c30,57,10,127-45,155C7644,5994,7614,5994,7574,5974z"/>
	<path d="M8618,5970c-53-41-61-125-15-168c55-52,120-49,168,6c28,31,31,40,26,81c-7,62-49,101-111,101
		C8658,5990,8634,5983,8618,5970z"/>
	<path d="M2448,5951c-29-26-33-36-33-79c0-39,5-56,24-76c36-38,82-50,123-33c53,23,73,52,73,109c0,43-4,53-33,79
		C2556,5992,2494,5992,2448,5951z"/>
	<path d="M8854,5896c-28-28-34-42-34-76c0-94,116-146,189-84c80,67,31,194-76,194C8895,5930,8883,5925,8854,5896z"/>
	<path d="M11667,5909c-82-64-37-199,67-202c69-2,116,46,116,119c0,28-8,44-34,70c-29,29-41,34-79,34
		C11707,5930,11684,5923,11667,5909z"/>
	<path d="M964,5876c-29-29-34-41-34-79c0-147,219-150,223-3c2,69-46,116-119,116C1006,5910,990,5902,964,5876z"/>
	<path d="M9514,5881c-37-22-59-78-49-119c9-38,53-81,91-88c42-8,100,20,119,57c26,49,19,97-19,135C9616,5906,9564,5912,9514,5881z"
		/>
	<path d="M9820,5889c-64-26-94-91-70-150c19-45,56-69,107-69c88,0,142,94,97,169C9926,5886,9867,5908,9820,5889z"/>
	<path d="M9142,5857c-34-20-55-55-55-98c0-78,71-132,144-110c52,16,79,53,79,108c0,38-5,50-34,79c-27,27-42,34-72,34
		C9182,5869,9155,5864,9142,5857z"/>
	<path d="M6784,5816c-29-29-34-41-34-81c0-38,5-52,28-75c77-76,198-25,196,82c-1,35-8,48-38,75C6885,5864,6832,5864,6784,5816z"/>
	<path d="M7873,5831c-40-25-53-49-53-101c0-57,50-110,104-110c52,0,90,23,111,66C8082,5785,7966,5889,7873,5831z"/>
	<path d="M1865,5831c-77-33-90-140-24-195c109-92,249,75,145,173C1960,5834,1897,5845,1865,5831z"/>
	<path d="M7333,5825c-38-16-63-60-63-111c0-28,8-44,34-70s42-34,70-34c52,0,90,23,111,67c16,33,16,41,4,77c-15,44-67,86-103,86
		C7374,5839,7351,5833,7333,5825z"/>
	<path d="M8384,5806c-38-38-45-86-19-135c14-28,68-61,100-61c43,0,102,51,111,95c13,72-43,135-122,135
		C8426,5840,8410,5832,8384,5806z"/>
	<path d="M6354,5801c-37-22-59-78-49-119c9-38,53-81,91-88c42-8,100,20,119,57c26,49,19,97-19,135C6456,5826,6404,5832,6354,5801z"
		/>
	<path d="M10744,5786c-101-101,37-254,150-165c58,46,54,142-8,180C10836,5832,10784,5826,10744,5786z"/>
	<path d="M5194,5796c-43-19-64-53-64-104c0-37,6-50,34-78c26-26,42-34,70-34c73,0,121,47,119,114c-1,45-18,73-56,96
		C5260,5813,5237,5814,5194,5796z"/>
	<path d="M10424,5776c-29-29-34-41-34-81c0-146,219-147,223-1c2,68-47,116-118,116C10466,5810,10450,5802,10424,5776z"/>
	<path d="M1324,5781c-68-29-86-126-35-183c26-29,36-33,79-33c57,0,86,20,109,73c17,41,5,87-31,121C1420,5784,1357,5795,1324,5781z"
		/>
	<path d="M10143,5775c-82-36-90-160-11-201c56-29,134-8,157,43c16,35,13,95-5,122c-16,23-71,51-96,51
		C10181,5789,10161,5783,10143,5775z"/>
	<path d="M2308,5764c-76-41-74-159,2-199c59-30,127-8,155,51c19,41,19,58-1,100C2436,5775,2366,5796,2308,5764z"/>
	<path d="M4223,5731c-40-25-53-49-53-100c0-117,164-152,215-45C4432,5686,4317,5790,4223,5731z"/>
	<path d="M8644,5696c-29-29-34-41-34-79c0-35,6-51,28-75c59-63,147-47,186,32c37,76-17,156-107,156C8686,5730,8671,5723,8644,5696z"
		/>
	<path d="M7615,5706c-51-22-70-52-70-108c0-43,4-53,33-79c25-23,42-29,76-29c132,0,157,172,33,219C7652,5722,7652,5722,7615,5706z"
		/>
	<path d="M9360,5702c-22-10-42-32-54-55c-37-77,17-157,108-157c53,0,106,52,106,104s-25,95-65,112C9411,5724,9402,5724,9360,5702z"
		/>
	<path d="M1580,5683c-86-77-17-220,95-199c41,8,84,54,91,98C1783,5683,1656,5751,1580,5683z"/>
	<path d="M11745,5679c-63-37-88-93-65-150c19-45,56-69,106-69c62,0,104,39,111,102c5,42,2,49-28,81
		C11832,5683,11779,5698,11745,5679z"/>
	<path d="M8143,5669c-47-14-73-52-73-108c1-72,42-111,119-111c31,0,46,7,70,31c26,26,31,38,31,81c0,41-5,54-29,79
		c-16,16-36,29-44,29c-9,0-21,2-29,4C8181,5676,8161,5674,8143,5669z"/>
	<path d="M2064,5636c-29-29-34-41-34-79c0-75,66-128,140-112c35,8,76,53,85,94c8,40-19,98-56,116C2150,5681,2102,5674,2064,5636z"/>
	<path d="M8940,5647c-29-15-70-72-70-99c0-34,29-83,59-101c48-28,98-22,137,17c28,28,34,41,34,78c0,50-18,82-60,103
		C9005,5663,8973,5664,8940,5647z"/>
	<path d="M9624,5634c-81-40-84-158-4-199c102-53,208,52,155,154c-14,29-69,61-102,61C9663,5650,9641,5643,9624,5634z"/>
	<path d="M9894,5636c-42-19-64-52-64-99c0-73,42-117,111-117c66,0,108,43,109,110c0,54-20,87-66,106C9943,5653,9934,5653,9894,5636z
		"/>
	<path d="M1070,5602c-73-74-28-192,74-195c69-2,116,46,116,119c0,28-8,44-34,70c-29,29-41,34-81,34C1107,5630,1093,5625,1070,5602z"
		/>
	<path d="M6725,5621c-33-14-56-47-62-89c-15-110,114-173,191-93C6941,5530,6842,5669,6725,5621z"/>
	<path d="M7039,5607c-21-14-39-38-48-63c-12-36-12-44,4-77c21-44,59-67,111-67c28,0,44,8,70,34c28,28,34,41,34,78c0,52-21,85-66,104
		C7098,5635,7078,5634,7039,5607z"/>
	<path d="M3183,5585c-82-36-90-160-11-201c59-31,136-8,158,46c28,67,5,130-55,156C3233,5603,3224,5603,3183,5585z"/>
	<path d="M7340,5572c-22-10-42-32-54-55c-37-77,17-157,108-157c56,0,106,52,106,109c0,51-24,89-67,107
		C7391,5594,7382,5594,7340,5572z"/>
	<path d="M10647,5560c-39-33-52-76-36-118c25-65,90-97,150-72c45,19,69,56,69,107c0,38-5,50-34,79C10750,5602,10696,5604,10647,5560
		z"/>
	<path d="M7831,5554c-99-83-9-243,110-194c45,19,69,56,69,107c0,38-5,50-34,79C7932,5590,7877,5593,7831,5554z"/>
	<path d="M8399,5565c-27-15-59-69-59-100c0-32,33-86,61-100c56-30,126-9,154,45C8608,5512,8500,5620,8399,5565z"/>
	<path d="M6170,5549c-64-26-94-91-70-150c19-45,56-69,106-69h44v-37c0-55,31-99,79-114c34-10,44-9,78,7c116,57,76,221-53,212l-41-3
		l5,41c4,37,0,46-29,77C6252,5552,6209,5565,6170,5549z"/>
	<path d="M10344,5532c-31-24-44-55-44-101c0-31,7-46,31-70c25-26,38-31,78-31c56,0,88,20,107,67c19,44,4,104-33,132
		C10450,5556,10374,5557,10344,5532z"/>
	<path d="M1834,5506c-26-26-34-42-34-71c0-53,27-92,76-111c37-14,45-14,77,0c39,16,77,67,77,104c0,31-25,77-52,96c-12,9-42,16-66,16
		C1875,5540,1862,5534,1834,5506z"/>
	<path d="M9168,5524c-51-27-73-101-44-152c17-32,65-62,99-62c40,0,84,26,102,60C9378,5473,9270,5580,9168,5524z"/>
	<path d="M1390,5476c-40-13-80-66-80-106s40-93,80-106c45-15,88-2,123,36C1587,5382,1498,5511,1390,5476z"/>
	<path d="M8690,5467c-39-13-80-67-80-104c0-32,25-78,52-97c12-9,42-16,66-16c37,0,50,6,78,34c26,26,34,42,34,71
		C8840,5440,8768,5493,8690,5467z"/>
	<path d="M10074,5461c-37-22-59-78-49-119c3-15,18-39,32-54c73-76,193-22,193,88c0,28-8,44-34,70C10176,5486,10124,5492,10074,5461z
		"/>
	<path d="M2309,5446c-36-21-63-79-55-120c9-45,55-87,102-92c102-13,165,110,96,187C2419,5458,2352,5470,2309,5446z"/>
	<path d="M1670,5433c-59-18-90-56-90-112c0-66,46-111,115-111c80,0,132,79,102,152C1776,5412,1714,5447,1670,5433z"/>
	<path d="M9424,5406c-29-29-34-41-34-79c0-147,219-150,223-3c2,69-46,116-119,116C9466,5440,9450,5432,9424,5406z"/>
	<path d="M8117,5409c-82-64-37-199,67-202c89-2,142,85,104,168C8263,5429,8167,5449,8117,5409z"/>
	<path d="M7548,5391c-29-26-33-36-33-79c0-57,20-86,73-109c44-18,91-3,128,40c22,26,25,38,21,76C7726,5414,7619,5455,7548,5391z"/>
	<path d="M9724,5356c-39-39-45-86-18-137c19-37,74-63,115-54c141,31,118,225-27,225C9766,5390,9750,5382,9724,5356z"/>
	<path d="M8956,5370c-39-12-64-37-75-75c-20-73,29-145,99-145c79,0,120,41,120,118c0,30-7,48-29,71c-16,17-36,31-44,31
		c-9,0-21,2-29,4C8991,5376,8972,5374,8956,5370z"/>
	<path d="M6956,5339c-44-38-54-83-32-131c29-61,96-84,156-53c41,21,60,53,60,100C7140,5355,7030,5405,6956,5339z"/>
	<path d="M1120,5342c-110-55-73-212,50-212c57,0,110,50,110,104c0,52-25,95-65,112C1171,5364,1162,5364,1120,5342z"/>
	<path d="M2074,5350c-34-13-64-59-64-97c0-107,115-160,191-87C2293,5254,2193,5398,2074,5350z"/>
	<path d="M7249,5337c-64-43-69-126-9-179c59-54,153-25,180,56c15,46-7,98-52,126C7325,5366,7291,5365,7249,5337z"/>
	<path d="M10823,5346c-65-29-84-123-35-176c54-62,158-47,189,27C11017,5294,10919,5389,10823,5346z"/>
	<path d="M3164,5321c-85-52-55-184,46-206c39-8,97,20,115,56c26,49,19,97-19,135C3266,5346,3214,5352,3164,5321z"/>
	<path d="M3433,5321c-40-25-53-49-53-101c0-34,6-48,34-76c27-27,42-34,74-34c49,0,95,35,112,84C3631,5288,3518,5374,3433,5321z"/>
	<path d="M7870,5313c-50-34-67-82-49-131c25-65,90-97,150-72c45,19,69,56,69,107c0,38-5,50-34,79c-27,27-42,34-73,34
		C7912,5330,7883,5322,7870,5313z"/>
	<path d="M11083,5318c-78-21-109-119-55-178c54-60,136-55,180,10C11266,5236,11185,5345,11083,5318z"/>
	<path d="M8402,5307c-34-20-53-53-54-97c-1-51,24-87,70-107c98-41,186,61,140,162C8536,5314,8454,5336,8402,5307z"/>
	<path d="M10538,5304c-76-41-74-159,2-199c57-30,127-10,155,45C10748,5253,10640,5360,10538,5304z"/>
	<path d="M9215,5260c-33-13-65-55-71-92c-12-74,51-135,129-125c109,15,132,164,33,211C9269,5271,9246,5273,9215,5260z"/>
	<path d="M2544,5226c-29-29-34-41-34-81c0-38,5-52,28-75c74-73,196-26,196,76c0,68-48,114-120,114C2586,5260,2570,5252,2544,5226z"
		/>
	<path d="M6754,5250c-60-24-85-121-44-172c42-54,125-61,169-14C6965,5156,6871,5297,6754,5250z"/>
	<path d="M10262,5247c-53-30-71-111-37-163c58-90,205-49,205,57c0,21-5,49-11,62C10397,5252,10314,5276,10262,5247z"/>
	<path d="M8706,5209c-66-19-101-89-76-150c19-45,56-69,107-69c38,0,50,5,79,34c47,47,48,102,2,150C8781,5212,8749,5222,8706,5209z"
		/>
	<path d="M9983,5210c-29-12-63-67-63-103c0-57,60-117,115-117c31,0,81,30,98,59C10190,5145,10089,5253,9983,5210z"/>
	<path d="M1819,5195c-36-19-63-78-55-120c13-68,93-111,157-84c60,24,89,116,53,167C1941,5206,1870,5223,1819,5195z"/>
	<path d="M1524,5156c-29-29-34-41-34-79c0-83,76-136,152-104c120,50,83,217-48,217C1566,5190,1550,5182,1524,5156z"/>
	<path d="M9468,5172c-30-18-58-67-58-100c0-28,41-85,74-100c38-19,93-7,128,28c23,23,28,37,28,75c0,40-5,52-34,81
		c-27,27-42,34-72,34C9512,5190,9483,5182,9468,5172z"/>
	<path d="M8134,5161c-35-21-60-78-50-115c10-39,45-75,85-87c73-22,141,34,141,117c0,28-8,44-34,70C8236,5186,8184,5192,8134,5161z"
		/>
	<path d="M1278,5154c-15-8-35-28-43-44c-60-116,86-226,179-134C1506,5069,1393,5217,1278,5154z"/>
	<path d="M7663,5150c-40-24-53-48-53-100c0-34,6-48,34-76s42-34,76-34s48,6,76,34s34,41,34,78c0,50-18,82-60,103
		C7731,5175,7701,5174,7663,5150z"/>
	<path d="M2324,5144c-35-17-64-61-64-99c0-87,104-145,176-99c75,50,68,161-12,199C2384,5164,2363,5164,2324,5144z"/>
	<path d="M7423,5121c-40-25-53-49-53-101c0-34,6-48,34-76c48-48,101-48,153-1c32,30,36,40,36,81c0,39-5,52-30,77
		C7524,5141,7468,5149,7423,5121z"/>
	<path d="M3020,5113c-54-37-71-88-47-146c36-84,160-88,202-7C3228,5062,3112,5176,3020,5113z"/>
	<path d="M9744,5110c-88-35-84-173,5-210c85-35,179,50,151,136C9878,5103,9808,5136,9744,5110z"/>
	<path d="M7124,5076c-26-26-34-42-34-70c0-73,47-121,116-119c75,2,126,73,105,144c-16,52-53,79-108,79
		C7165,5110,7153,5105,7124,5076z"/>
	<path d="M3305,5087c-59-27-83-86-59-146c38-95,171-94,209,1C3492,5034,3395,5127,3305,5087z"/>
	<path d="M8949,5085c-27-15-59-69-59-100s30-81,59-98c55-32,127-13,156,43C9158,5032,9050,5140,8949,5085z"/>
	<path d="M5740,5073c-55-38-72-91-46-145c53-112,216-74,216,49c0,45-20,77-60,98C5812,5095,5770,5094,5740,5073z"/>
	<path d="M8440,5063c-109-55-74-213,47-213c38,0,50,5,79,34c37,37,45,82,22,130C8564,5067,8495,5090,8440,5063z"/>
	<path d="M10734,5064c-81-40-84-158-4-199c103-53,208,53,154,156c-15,30-66,59-101,59C10773,5080,10751,5073,10734,5064z"/>
	<path d="M2048,5049c-16-12-32-37-38-60c-15-54,10-107,62-132c101-49,200,64,141,163C2182,5073,2099,5087,2048,5049z"/>
	<path d="M11054,5056c-80-36-98-132-35-188c68-61,176-22,187,67C11216,5022,11131,5090,11054,5056z"/>
	<path d="M7874,5026c-39-39-45-86-19-136c16-30,61-60,90-60c12,0,9-8-13-30c-48-48-48-112-1-160c58-58,167-32,188,45
		c20,74-27,145-96,145h-34l35,31c85,74,37,199-77,199C7916,5060,7901,5053,7874,5026z"/>
	<path d="M3572,5034c-74-51-65-161,16-200c48-22,93-12,131,32c35,39,40,78,16,124C3707,5045,3620,5068,3572,5034z"/>
	<path d="M6889,5025c-35-19-62-77-54-115c30-138,225-121,225,20c0,34-6,48-34,76c-27,27-42,34-72,34C6932,5039,6903,5033,6889,5025z
		"/>
	<path d="M10443,5021c-40-25-53-49-53-101c0-34,6-48,34-76s42-34,76-34s48,6,76,34c29,29,34,41,34,80
		C10610,5014,10518,5068,10443,5021z"/>
	<path d="M2626,5009c-88-24-111-142-39-199c33-26,109-27,139-2C2824,4887,2748,5042,2626,5009z"/>
	<path d="M9218,4984c-32-17-58-62-58-99c0-57,61-115,120-115c34,0,78,28,95,60C9428,4933,9320,5040,9218,4984z"/>
	<path d="M10119,4985c-27-14-59-69-59-100c0-47,51-103,102-111c69-12,128,44,128,122c0,52-53,104-106,104
		C10162,4999,10133,4993,10119,4985z"/>
	<path d="M6614,4971c-37-22-59-78-49-119c3-15,18-39,32-54c73-76,193-22,193,88c0,28-8,44-34,70C6716,4996,6664,5002,6614,4971z"/>
	<path d="M6363,4945c-38-16-63-60-63-111s53-104,104-104c21,0,50,7,65,15c29,14,61,68,61,102c0,29-36,81-69,98
		C6425,4963,6405,4963,6363,4945z"/>
	<path d="M8684,4916c-28-28-34-42-34-76c0-53,29-95,76-110c63-21,125,13,145,79c22,73-34,141-117,141C8726,4950,8710,4942,8684,4916
		z"/>
	<path d="M8230,4934c-63-22-90-57-90-120c0-28,8-44,34-70c29-29,41-34,79-34c111,0,156,145,64,204C8290,4932,8250,4941,8230,4934z"
		/>
	<path d="M1454,4896c-28-28-34-41-34-78c0-50,18-82,60-103c39-20,69-19,108,5c70,43,75,131,11,185C1553,4943,1498,4940,1454,4896z"
		/>
	<path d="M9508,4910c-79-62-49-183,51-205c65-14,131,46,131,120c0,29-8,45-34,71c-29,29-41,34-79,34C9548,4930,9524,4923,9508,4910z
		"/>
	<path d="M1144,4886c-26-26-34-42-34-70c0-52,23-90,66-111c46-22,92-14,128,24c73,77,20,191-90,191C1186,4920,1170,4912,1144,4886z"
		/>
	<path d="M1765,4906c-42-18-65-57-65-107c0-56,50-109,104-109c52,0,90,23,111,67c16,33,16,41,4,77C1895,4901,1825,4934,1765,4906z"
		/>
	<path d="M6095,4911c-29-12-54-44-65-81c-19-67,39-140,112-140c32,0,47,7,74,34c28,28,34,41,34,78c0,50-18,82-60,103
		C6158,4921,6126,4923,6095,4911z"/>
	<path d="M2869,4887c-21-14-39-38-48-63c-12-35-12-44,3-75c20-43,62-69,111-69c29,0,45,8,71,34c28,28,34,41,34,78c0,50-18,82-60,103
		C2940,4916,2909,4914,2869,4887z"/>
	<path d="M7352,4873c-80-39-81-157-2-198c103-53,211,57,153,156c-18,30-67,59-100,59C7393,4890,7370,4882,7352,4873z"/>
	<path d="M7654,4876c-43-19-64-53-64-104c0-37,6-50,34-78c38-38,85-45,134-20c80,41,71,166-13,202C7703,4893,7694,4893,7654,4876z"
		/>
	<path d="M9824,4861c-37-22-59-78-49-119c3-15,18-39,32-54c76-80,205-15,190,96C9986,4867,9897,4906,9824,4861z"/>
	<path d="M2344,4846c-44-19-64-53-64-104c0-37,6-50,34-78c27-27,42-34,73-34c84,0,141,79,109,153C2469,4848,2405,4874,2344,4846z"/>
	<path d="M10924,4841c-68-29-86-126-35-183c26-29,36-33,79-33c57,0,86,20,109,73c17,41,5,87-31,121
		C11020,4844,10957,4855,10924,4841z"/>
	<path d="M7078,4824c-54-29-73-101-41-155c17-29,67-59,98-59s81,30,98,59C7292,4769,7180,4880,7078,4824z"/>
	<path d="M2055,4816c-51-22-70-52-70-108c0-43,4-53,33-79c71-64,178-23,189,71c6,53-20,94-73,116C2094,4833,2093,4833,2055,4816z"/>
	<path d="M8440,4793c-38-35-51-78-36-123c13-40,66-80,106-80c41,0,93,40,107,83C8652,4779,8522,4866,8440,4793z"/>
	<path d="M8996,4810c-122-37-101-220,25-220c74,0,119,41,119,110C9140,4777,9070,4831,8996,4810z"/>
	<path d="M3158,4794c-76-41-74-159,2-199c57-30,127-10,155,45C3368,4743,3260,4850,3158,4794z"/>
	<path d="M10304,4766c-29-29-34-41-34-79c0-55,27-92,79-108c74-22,144,32,143,110c-1,70-45,111-118,111
		C10346,4800,10330,4792,10304,4766z"/>
	<path d="M10624,4761c-37-22-59-78-49-119c3-15,18-39,32-54c73-76,193-22,193,88c0,28-8,44-34,70C10726,4786,10674,4792,10624,4761z
		"/>
	<path d="M9320,4753c-30-11-70-57-76-88c-3-19,1-46,9-68c47-111,217-73,217,49C9470,4719,9388,4778,9320,4753z"/>
	<path d="M2632,4730c-70-43-75-131-11-185c46-38,101-35,145,9c28,28,34,41,34,78c0,50-18,82-60,103C2701,4755,2671,4754,2632,4730z"
		/>
	<path d="M6784,4706c-26-26-34-42-34-70c0-52,23-90,66-111c31-14,43-15,75-6c66,20,100,82,79,146c-15,45-61,75-113,75
		C6826,4740,6811,4733,6784,4706z"/>
	<path d="M10044,4696c-38-38-45-86-19-135c18-37,76-64,116-56c41,9,86,50,94,85c16,74-37,140-112,140
		C10085,4730,10073,4725,10044,4696z"/>
	<path d="M1360,4713c-30-11-70-57-76-89c-8-42,20-100,57-119c49-26,97-19,135,19c28,28,34,41,34,78c0,24-7,54-16,66
		C1466,4709,1405,4729,1360,4713z"/>
	<path d="M6523,4685c-36-15-73-68-73-103c0-31,25-77,52-96c12-9,42-16,66-16c59,0,112,49,112,104C6680,4664,6602,4720,6523,4685z"/>
	<path class="st0" d="M6208,4663c-51-32-65-118-27-166c64-82,199-37,202,67C6386,4656,6287,4712,6208,4663z"/>
	<path d="M8684,4646c-44-44-47-99-9-145c54-64,142-59,185,11c24,39,25,69,5,108c-21,42-53,60-103,60C8725,4680,8712,4674,8684,4646z
		"/>
	<path d="M9605,4667c-82-37-93-138-20-195c83-66,205,25,171,127C9736,4661,9663,4693,9605,4667z"/>
	<path d="M5882,4642c-38-35-48-79-28-125c36-87,160-96,202-15c25,49,18,96-20,134c-29,29-41,34-79,34C5922,4670,5906,4664,5882,4642
		z"/>
	<path d="M8208,4644c-76-41-74-159,2-199c57-30,127-10,155,45C8418,4593,8310,4700,8208,4644z"/>
	<path d="M1074,4631c-37-22-59-78-49-119c3-15,18-39,32-54c73-76,193-22,193,88c0,28-8,44-34,70C1176,4656,1124,4662,1074,4631z"/>
	<path d="M7444,4616c-26-26-34-42-34-70c0-110,120-164,193-88c73,77,21,192-86,192C7486,4650,7471,4643,7444,4616z"/>
	<path d="M2928,4624c-76-41-74-159,2-199c57-30,127-10,155,45C3138,4573,3030,4680,2928,4624z"/>
	<path d="M1579,4592c-45-40-52-106-15-149c34-41,83-58,122-43c67,26,99,90,74,151C1730,4624,1638,4645,1579,4592z"/>
	<path d="M1884,4606c-44-19-64-53-64-104c0-37,6-50,34-78c38-38,85-45,134-20c48,25,70,88,48,139C2011,4604,1942,4632,1884,4606z"/>
	<path d="M7975,4590c-33-13-65-55-71-92c-12-73,51-135,128-125l38,5l-25-30c-32-38-34-103-5-141c82-104,251-1,194,118
		c-21,44-64,68-115,63l-38-3l20,21c28,30,35,93,16,131C8092,4585,8024,4611,7975,4590z"/>
	<path d="M2190,4572c-20-9-44-33-54-53c-40-75,17-159,108-159c53,0,106,52,106,104c0,51-23,90-64,110C2243,4594,2233,4594,2190,4572
		z"/>
	<path d="M8464,4565c-58-30-79-97-49-155c21-41,53-60,100-60s79,19,100,60c24,47,19,86-17,125C8559,4577,8510,4588,8464,4565z"/>
	<path d="M9118,4565c-74-41-77-152-6-195c62-37,133-17,164,48C9321,4513,9209,4616,9118,4565z"/>
	<path d="M9834,4546c-27-27-34-42-34-72c0-91,80-145,157-108c114,56,78,214-50,214C9876,4580,9861,4573,9834,4546z"/>
	<path d="M10435,4570c-60-24-90-103-61-158c50-98,198-74,213,34C10598,4534,10514,4603,10435,4570z"/>
	<path d="M2432,4521c-59-60-44-148,31-185c33-16,45-17,77-7c92,27,110,157,30,204C2524,4560,2467,4555,2432,4521z"/>
	<path d="M10843,4535c-82-36-90-160-11-201c59-31,136-8,158,46c28,67,5,130-55,156C10893,4553,10884,4553,10843,4535z"/>
	<path d="M8882,4487c-34-20-53-53-54-97c-1-79,69-133,143-111c52,16,79,53,79,108c0,38-5,50-34,79c-27,27-42,34-72,34
		C8922,4499,8895,4494,8882,4487z"/>
	<path d="M9404,4483c-12-2-34-18-50-34c-24-25-29-39-29-80c0-44,4-54,33-80c72-64,178-23,189,73c5,42,2,49-28,81
		C9485,4478,9446,4492,9404,4483z"/>
	<path d="M2732,4460c-70-43-75-131-11-185c46-38,101-35,145,9c28,28,34,41,34,78c0,50-18,82-60,103C2801,4485,2771,4484,2732,4460z"
		/>
	<path d="M6680,4453c-62-55-47-153,28-189c89-42,190,55,152,147C6830,4483,6738,4505,6680,4453z"/>
	<path d="M10144,4446c-27-27-34-42-34-72c0-91,80-145,157-108c114,56,78,214-50,214C10186,4480,10171,4473,10144,4446z"/>
	<path d="M1332,4447c-35-20-55-56-55-99c0-50,28-89,76-105c118-40,203,99,115,187c-23,24-38,30-71,30C1374,4459,1345,4454,1332,4447
		z"/>
	<path d="M11401,4426c-81-45-63-180,27-207c97-29,180,76,132,166C11533,4435,11454,4455,11401,4426z"/>
	<path d="M9644,4371c-61-37-69-119-17-173c76-79,205-14,190,96C9806,4376,9717,4416,9644,4371z"/>
	<path d="M1074,4361c-119-72-16-256,110-196c64,31,84,101,46,163C1197,4381,1131,4396,1074,4361z"/>
	<path d="M5624,4346c-28-28-34-42-34-75c0-76,80-136,148-110c65,25,97,90,72,150c-19,45-56,69-107,69C5665,4380,5653,4375,5624,4346
		z"/>
	<path d="M7589,4357c-45-30-64-85-45-131c32-77,119-101,176-48c60,53,55,136-9,179C7668,4386,7632,4386,7589,4357z"/>
	<path d="M8608,4363c-15-10-34-34-42-54c-36-90,47-179,139-149c49,16,75,53,75,107c0,38-5,50-34,79c-27,27-42,34-72,34
		C8652,4380,8623,4372,8608,4363z"/>
	<path d="M8344,4356c-45-20-74-62-74-108c0-32,7-47,34-74c29-29,41-34,79-34c132,0,159,172,34,219C8382,4372,8382,4372,8344,4356z"
		/>
	<path d="M1775,4346c-51-22-70-52-70-108c0-43,4-53,33-79c71-64,178-23,189,71c6,53-20,94-73,116C1814,4363,1813,4363,1775,4346z"/>
	<path d="M2045,4338c-63-34-88-92-65-148c44-106,202-87,217,26C2208,4303,2116,4378,2045,4338z"/>
	<path d="M7039,4292c-24-21-32-39-36-73c-5-41-2-50,26-82c18-19,44-38,60-42c56-12,126,34,137,92C7246,4293,7120,4364,7039,4292z"/>
	<path d="M9930,4303c-109-55-74-213,47-213c38,0,50,5,79,34c37,37,45,82,22,130C10054,4307,9985,4330,9930,4303z"/>
	<path d="M2323,4290c-40-24-53-48-53-98c0-101,123-147,195-72c23,24,28,39,28,76c0,41-4,51-36,81C2414,4316,2372,4320,2323,4290z"/>
	<path d="M9165,4298c-63-35-88-92-65-149c19-45,56-69,106-69c120,0,156,163,48,215C9216,4313,9193,4314,9165,4298z"/>
	<path d="M1515,4276c-40-17-65-56-65-101c0-71,43-115,111-115c123,0,157,169,44,216C1563,4293,1554,4293,1515,4276z"/>
	<path d="M10445,4272c-74-34-89-120-31-178c29-29,41-34,81-34c38,0,52,5,75,28C10663,4181,10563,4326,10445,4272z"/>
	<path d="M7354,4266c-43-19-64-53-64-104c0-37,6-50,34-78s42-34,76-34s48,6,76,34s34,41,34,78c0,52-21,85-66,104
		C7403,4283,7394,4283,7354,4266z"/>
	<path d="M2604,4232c-63-50-56-159,11-190c69-32,143-3,165,63c15,44-1,96-37,125C2710,4256,2634,4257,2604,4232z"/>
	<path d="M8847,4221c-41-36-53-74-37-117c26-67,90-99,151-74c45,19,69,56,69,106c0,62-39,104-101,111C8888,4252,8879,4249,8847,4221
		z"/>
	<path d="M9453,4205c-59-25-85-92-58-150c21-42,59-65,111-65c54,0,104,53,104,109c0,51-24,89-67,107C9503,4223,9494,4223,9453,4205z
		"/>
	<path d="M10154,4176c-27-27-34-42-34-72c0-91,80-145,156-108c79,39,95,127,32,186c-24,22-40,28-75,28
		C10195,4210,10183,4205,10154,4176z"/>
	<path d="M1283,4163c-13-3-36-18-53-34c-25-26-30-38-30-79s5-53,31-79c59-59,166-33,188,45C1443,4102,1371,4179,1283,4163z"/>
	<path d="M8094,4106c-101-101,37-254,150-165c58,46,54,142-8,180C8186,4152,8134,4146,8094,4106z"/>
	<path d="M8604,4086c-27-27-34-42-34-74c0-105,136-156,200-75c41,53,38,106-10,154c-23,24-37,29-75,29
		C8645,4120,8633,4115,8604,4086z"/>
	<path d="M8367,4089c-37-28-52-88-33-132c19-47,51-67,106-67c87,1,136,82,98,165C8513,4109,8417,4129,8367,4089z"/>
	<path d="M9720,4093c-55-38-72-91-46-145c40-85,159-89,201-8C9928,4042,9812,4156,9720,4093z"/>
	<path d="M1673,4075c-36-15-73-68-73-103c0-31,25-77,52-96c12-9,42-16,66-16c91,0,145,105,90,175c-19,24-74,56-95,55
		C1709,4089,1690,4083,1673,4075z"/>
	<path d="M7563,4074c-31-15-63-65-63-98c0-35,30-85,59-100c77-41,171,10,171,92c0,45-24,89-60,107C7633,4094,7603,4094,7563,4074z"
		/>
	<path d="M7824,4080c-55-22-85-99-60-152c52-110,216-75,216,45c0,49-19,81-60,102C7888,4092,7856,4093,7824,4080z"/>
	<path d="M2172,4063c-80-39-81-157-2-198c103-53,211,57,153,156c-18,30-67,59-100,59C2213,4080,2190,4072,2172,4063z"/>
	<path d="M1918,4044c-76-41-74-159,2-199c57-30,127-10,155,45C2128,3993,2020,4100,1918,4044z"/>
	<path d="M9035,4051c-77-33-90-140-24-195c46-39,101-36,145,8c29,29,34,41,34,80c0,61-37,105-95,111C9073,4058,9046,4056,9035,4051z
		"/>
	<path class="st1" d="M5834,4016c-26-26-34-42-34-71c0-42,14-73,42-96c20-16,20-16-6-44c-48-52-43-119,14-170c16-15,35-20,71-19h49
		v-39c0-55,51-107,107-107c21,0,49,7,61,16c21,15,22,14,22-16c0-106,128-158,194-79c34,40,41,70,26,114c-21,64-114,97-168,59
		c-22-15-22-14-22,25c0,31-7,49-29,73c-26,29-35,33-80,33h-51v37c0,27-8,47-30,71c-27,31-28,36-14,48c8,7,22,26,31,43
		c11,21,18,26,20,16c17-60,56-90,119-90c28,0,44,8,70,34c29,29,34,41,34,79c0,56-27,92-80,108c-32,10-44,9-77-7c-22-11-45-32-54-52
		l-17-32l-12,30c-18,43-60,70-110,70C5876,4050,5862,4044,5834,4016z"/>
	<path d="M10568,4032c-37-22-61-75-53-113c31-138,225-123,225,18c0,38-5,50-34,79c-27,27-42,34-72,34
		C10612,4050,10583,4042,10568,4032z"/>
	<path d="M2449,4015c-36-19-63-78-55-119c4-18,19-45,35-60c77-73,191-20,191,90c0,52-53,104-106,104C2492,4029,2463,4023,2449,4015z
		"/>
	<path d="M9263,4010c-40-24-53-48-53-100c0-34,6-48,34-76s42-34,76-34s48,6,76,34s34,41,34,78c0,50-18,82-60,103
		C9331,4035,9301,4034,9263,4010z"/>
	<path d="M9983,4016c-38-17-63-61-63-112s53-104,104-104c53,0,95,25,113,67C10177,3964,10079,4059,9983,4016z"/>
	<path d="M7332,3950c-45-28-67-80-52-126s63-84,105-84h34l-21-35c-24-41-20-95,9-128c26-29,80-49,114-42c31,7,89,67,89,92
		c0,13,6,12,28-9c34-32,72-41,109-27c66,25,98,90,73,150c-19,45-56,69-107,69c-38,0-50-5-79-34c-19-19-34-42-34-51c0-14-5-12-31,9
		c-22,19-42,26-70,26h-40l20,26c25,32,28,100,5,132c-19,27-65,52-96,52C7375,3970,7350,3961,7332,3950z"/>
	<path d="M10274,3936c-27-27-34-42-34-72c0-91,80-145,157-108c23,12,46,33,57,55c40,75-17,159-107,159
		C10316,3970,10301,3963,10274,3936z"/>
	<path d="M8816,3940c-39-12-64-37-75-75c-12-46-3-81,31-115c23-23,39-30,69-30c77,0,118,39,119,111c0,38-6,53-29,78
		c-16,17-36,31-44,31c-9,0-21,2-29,4C8851,3946,8832,3944,8816,3940z"/>
	<path d="M5624,3926c-45-20-74-62-74-108c0-32,7-47,34-74c28-28,41-34,78-34c24,0,54,7,66,16c27,19,52,65,52,96c0,36-37,88-75,104
		C5664,3943,5663,3943,5624,3926z"/>
	<path d="M9533,3921c-40-25-53-49-53-101c0-34,6-48,34-76c27-27,42-34,74-34c49,0,95,35,112,84C9731,3888,9618,3974,9533,3921z"/>
	<path d="M1454,3920c-60-24-85-121-44-172c41-53,125-61,168-15c51,54,49,120-5,167C1538,3931,1497,3938,1454,3920z"/>
	<path d="M8013,3900c-40-24-53-48-53-97c0-121,164-155,216-45c22,48,12,93-32,131C8103,3926,8060,3929,8013,3900z"/>
	<path d="M6283,3855c-36-15-73-68-73-103c0-61,54-112,121-112c56,0,109,50,109,104c0,51-23,90-64,110C6335,3873,6325,3873,6283,3855
		z"/>
	<path d="M8273,3845c-83-36-88-167-7-203c48-23,93-15,130,22c28,28,34,41,34,78c0,52-21,85-66,104C8323,3863,8314,3863,8273,3845z"
		/>
	<path d="M8523,3845c-82-35-90-153-13-198c57-34,137-11,161,46c27,64,4,128-56,153C8573,3863,8564,3863,8523,3845z"/>
	<path d="M6760,3833c-109-55-74-213,47-213c38,0,50,5,79,34c37,37,45,82,22,130C6884,3837,6815,3860,6760,3833z"/>
	<path d="M1752,3814c-53-27-79-103-52-154c9-17,7-18-23-13c-39,6-88-15-111-49c-9-12-16-42-16-66c0-37,6-50,35-79c33-33,39-35,82-30
		c63,7,103,49,103,108c0,22-4,49-10,59c-9,16-6,18,29,13c110-15,172,114,92,191C1846,3828,1795,3836,1752,3814z"/>
	<path d="M7080,3813c-58-21-93-98-70-153c44-106,202-87,217,26C7238,3770,7156,3841,7080,3813z"/>
	<path d="M9045,3786c-42-18-65-57-65-107c0-56,50-109,104-109c52,0,90,23,111,67c16,33,16,41,4,77C9175,3781,9105,3814,9045,3786z"
		/>
	<path d="M10563,3780c-39-24-53-48-53-95c0-120,163-158,215-49c19,41,19,58-1,100C10695,3798,10623,3817,10563,3780z"/>
	<path d="M9803,3775c-84-36-92-159-12-200c49-26,97-19,135,19c28,28,34,41,34,78c0,52-21,85-66,104C9853,3793,9844,3793,9803,3775z"
		/>
	<path d="M10054,3761c-37-22-59-78-49-119c9-38,53-81,91-88c42-8,100,20,119,57c26,49,19,97-19,135
		C10156,3786,10104,3792,10054,3761z"/>
	<path d="M9284,3736c-28-28-34-42-34-76s6-48,34-76c29-29,41-34,80-34c36,0,52,6,78,29c29,26,33,35,33,81s-4,55-33,81
		c-26,23-42,29-78,29C9325,3770,9313,3765,9284,3736z"/>
	<path d="M6474,3731c-37-22-59-78-49-119c3-15,18-39,32-54c73-76,193-22,193,88c0,28-8,44-34,70C6576,3756,6524,3762,6474,3731z"/>
	<path d="M5455,3690c-43-17-68-57-68-106c0-42,4-51,37-82c35-31,42-34,84-29c114,13,143,160,42,212C5518,3701,5486,3703,5455,3690z"
		/>
	<path d="M8738,3685c-53-30-75-116-42-163c51-74,161-65,200,16C8941,3633,8829,3736,8738,3685z"/>
	<path d="M10335,3678c-65-36-87-89-62-151c18-42,60-67,113-67c51,0,104,53,104,104s-23,90-64,110C10387,3693,10363,3694,10335,3678z
		"/>
	<path d="M9534,3636c-28-28-34-42-34-76c0-141,195-158,225-20c8,39-20,97-56,115C9620,3681,9572,3674,9534,3636z"/>
	<path d="M5704,3631c-37-22-59-78-49-119c3-15,18-39,32-54c73-76,193-22,193,88c0,28-8,44-34,70C5806,3656,5754,3662,5704,3631z"/>
	<path d="M6922,3613c-100-49-66-213,44-213c131,0,169,156,52,216C6983,3634,6963,3633,6922,3613z"/>
	<path class="st2" d="M6662,3554c-101-52-66-214,46-214c48,0,95,29,111,69C6859,3504,6754,3601,6662,3554z"/>
	<path d="M7809,3555c-41-22-62-76-49-123c35-132,220-110,220,25c0,38-5,50-34,79c-27,27-42,34-72,34C7852,3569,7823,3563,7809,3555z
		"/>
	<path d="M8942,3547c-34-20-53-53-54-97c-1-51,24-89,72-107l38-15l-19-32c-36-59-15-136,46-162l33-14l-34-34c-29-29-34-41-34-81
		c0-38,5-52,29-75c51-52,111-52,162,0c55,54,32,153-43,184l-28,12l23,13c30,16,57,61,57,96c0,55-54,115-105,115c-14,0-13,4,4,26
		c27,34,28,110,3,140C9057,3560,8990,3573,8942,3547z"/>
	<path d="M7610,3533c-62-19-90-56-90-119c0-28,8-44,34-70c29-29,41-34,79-34c139,0,154,194,17,223C7636,3536,7618,3536,7610,3533z"
		/>
	<path d="M9223,3530c-64-26-79-127-27-181c76-80,206-15,191,95C9377,3520,9299,3561,9223,3530z"/>
	<path d="M7180,3513c-8-3-27-17-42-31c-79-73-13-203,96-189c109,15,134,161,36,212C7241,3520,7208,3523,7180,3513z"/>
	<path d="M10053,3491c-35-22-53-49-53-81c0-18-5-15-38,20c-33,34-45,40-80,40c-32,0-49-7-75-30c-54-47-56-113-5-167
		c61-65,188-17,188,70v30l23-34c59-87,174-73,207,25C10251,3458,10138,3544,10053,3491z"/>
	<path d="M5291,3476c-52-29-69-121-30-169c64-82,199-37,202,67C5465,3463,5370,3520,5291,3476z"/>
	<path d="M8047,3472c-15-9-34-35-43-59c-15-39-15-44,2-80c55-112,214-80,214,44c0,38-5,50-34,79c-27,27-42,34-72,34
		C8092,3490,8063,3482,8047,3472z"/>
	<path d="M1773,3426c-38-17-63-61-63-112s53-104,104-104c53,0,95,25,113,67C1967,3374,1869,3469,1773,3426z"/>
	<path class="st2" d="M5583.6,3434c-58.5-22-83.6-57-83.6-120c0-52,49.2-104,99.3-104c80.8,0,131.8,76,102.1,152
		C5681,3413,5623.5,3448,5583.6,3434z"/>
	<path d="M5884,3430c-60-24-85-121-44-172c41-53,125-61,168-15c51,54,49,120-5,167C5968,3441,5927,3448,5884,3430z"/>
	<path d="M6409,3425c-27-15-59-69-59-102c0-31,38-82,75-100c74-35,155,23,155,111c0,54-52,106-106,106
		C6452,3439,6423,3433,6409,3425z"/>
	<path class="st3" d="M6854,3375c-39-20-64-63-64-110c0-51,53-105,103-105c53,0,85,16,108,52C7059,3306,6953,3425,6854,3375z"/>
	<path d="M6155,3310c-33-13-65-55-71-92c-12-69,44-128,122-128c51,0,104,53,104,104C6310,3282,6230,3342,6155,3310z"/>
	<path d="M7764,3310c-60-24-85-121-44-172c41-53,125-61,168-15c51,54,49,120-5,167C7848,3321,7807,3328,7764,3310z"/>
	<path d="M6618,3269c-33-12-68-66-68-103c0-61,55-116,115-116c119,0,158,171,50,216C6676,3282,6656,3283,6618,3269z"/>
	<path d="M7063,3266c-70-32-83-135-23-188c55-50,151-28,179,41C7258,3213,7157,3308,7063,3266z"/>
	<path d="M10823,3255c-36-15-73-68-73-103c0-31,25-77,52-96c12-9,42-16,66-16c87,0,140,94,96,169C10934,3259,10876,3279,10823,3255z
		"/>
	<path d="M7308,3234c-76-41-74-159,2-199c57-30,127-10,155,45C7518,3183,7410,3290,7308,3234z"/>
	<path d="M2180,3193c-61-55-48-153,26-188c68-32,148,10,160,87C2383,3193,2256,3261,2180,3193z"/>
	<path d="M10140,3202c-72-36-86-125-28-183c24-23,38-29,75-29c38,0,50,5,79,34c28,28,34,42,34,76c0,55-30,96-78,110
		C10175,3223,10181,3223,10140,3202z"/>
	<path d="M5302,3194c-27-19-52-65-52-96c0-59,81-127,133-113c67,19,97,56,97,121c0,28-8,44-34,70c-28,28-41,34-78,34
		C5344,3210,5314,3203,5302,3194z"/>
	<path d="M5644,3200c-67-27-86-125-35-182c26-29,36-33,79-33c57,0,86,20,109,73C5834,3146,5736,3237,5644,3200z"/>
	<path class="st4" d="M5922,3157c-54-30-73-109-39-161c63-95,207-51,207,64c0,34-6,48-34,76c-27,27-42,34-72,34
		C5962,3169,5935,3164,5922,3157z"/>
	<path d="M6334,3121c-61-38-68-124-15-175c76-73,191-20,191,88C6510,3116,6406,3167,6334,3121z"/>
	<path d="M6821,3061c-27-25-31-36-31-79s5-55,31-81s38-31,79-31s53,5,79,31s31,38,31,79c0,39-5,54-29,79c-25,27-36,31-79,31
		C6861,3090,6847,3085,6821,3061z"/>
	<path d="M7175,3033c-33-8-74-54-81-90c-20-106,106-177,187-105c24,21,32,39,36,74c5,42,2,49-28,81C7255,3028,7214,3043,7175,3033z"
		/>
	<path d="M6554,2986c-28-28-34-42-34-75c0-76,80-136,148-110c65,25,97,90,72,150c-19,45-56,69-107,69C6595,3020,6583,3015,6554,2986
		z"/>
	<path d="M7454,3001c-84-51-57-188,42-207c42-8,100,20,119,57c26,49,19,97-19,135C7556,3026,7504,3032,7454,3001z"/>
	<path d="M5473,2956c-43-37-58-84-40-128c23-53,52-73,109-73c43,0,53,4,79,33c64,71,23,178-72,189C5511,2981,5499,2978,5473,2956z"
		/>
	<path d="M2791,2956c-52-29-69-121-30-169c64-82,199-37,202,67C2965,2943,2870,3000,2791,2956z"/>
	<path d="M5773,2954c-33-16-63-66-63-104c0-56,57-110,117-110c38,0,91,34,103,66c22,58,1,123-50,149C5843,2974,5813,2974,5773,2954z
		"/>
	<path d="M6112,2950c-70-43-75-131-11-185c46-38,101-35,145,9c28,28,34,41,34,78c0,50-18,82-60,103C6181,2975,6151,2974,6112,2950z"
		/>
	<path d="M7714,2886c-26-26-34-42-34-71c0-74,66-134,131-120c138,31,123,225-18,225C7755,2920,7743,2915,7714,2886z"/>
	<path d="M3032,2867c-34-19-55-55-56-96c-2-77,72-134,145-112c52,16,79,53,79,108c0,38-5,50-34,79c-27,27-42,34-72,34
		C3072,2879,3045,2874,3032,2867z"/>
	<path d="M3293,2846c-38-17-63-61-63-112c0-28,8-44,34-70s42-34,70-34c53,0,95,25,113,67C3487,2794,3389,2889,3293,2846z"/>
	<path d="M7000,2843c-62-19-90-56-90-119c0-28,8-44,34-70c29-29,41-34,79-34c139,0,154,194,17,223C7026,2846,7008,2846,7000,2843z"
		/>
	<path d="M6378,2814c-74-39-77-151-6-194c62-37,138-16,164,45c18,44,18,59-2,100C6507,2822,6434,2845,6378,2814z"/>
	<path d="M6703,2795c-36-15-73-68-73-103c0-31,25-77,52-96c12-9,42-16,66-16c37,0,50,6,78,34c26,26,34,42,34,70c0,51-23,90-64,110
		C6755,2813,6745,2813,6703,2795z"/>
	<path d="M7290,2799c-63-26-94-91-70-150c30-73,122-94,181-41c64,57,45,154-37,188C7326,2812,7324,2812,7290,2799z"/>
	<path d="M7504,2696c-27-27-34-42-34-73c0-81,76-139,148-112c65,25,97,90,72,150c-19,45-56,69-107,69C7545,2730,7533,2725,7504,2696
		z"/>
	<path d="M2815,2706c-51-22-70-52-70-108c0-43,4-53,33-79c72-64,178-23,189,73c5,42,2,49-28,81C2900,2714,2858,2725,2815,2706z"/>
	<path d="M3563,2686c-38-17-63-61-63-112c0-28,8-44,34-70s42-34,70-34c52,0,90,23,111,67c16,33,16,41,4,77
		C3695,2682,3626,2714,3563,2686z"/>
	<path d="M10617,2650c-30-24-50-78-42-112c6-23,4-24-23-20c-39,5-88-21-107-58c-55-106,60-213,161-151c36,22,59,78,50,117
		c-6,23-4,24,36,24c69,1,108,44,108,119c0,31-7,46-31,70c-26,26-38,31-78,31C10658,2670,10635,2664,10617,2650z"/>
	<path d="M3184,2612c-29-23-44-54-44-92c0-67,43-109,111-110c56,0,93,25,109,75c15,44-1,96-37,125C3290,2636,3214,2637,3184,2612z"
		/>
	<path d="M6893,2578c-46-12-83-61-83-110c0-32,7-47,34-74c61-61,150-44,183,34C7063,2515,6985,2603,6893,2578z"/>
	<path d="M7094,2572c-30-24-44-55-44-97c0-29,8-45,34-71c29-29,41-34,79-34c54,0,91,26,107,75c15,44-1,96-37,125
		C7200,2596,7124,2597,7094,2572z"/>
	<path d="M10044,2556c-26-26-34-42-34-70c0-73,47-121,116-119c75,2,126,73,105,144c-16,52-53,79-108,79
		C10085,2590,10073,2585,10044,2556z"/>
	<path d="M6561,2529c-17-17-31-40-31-52c0-19-2-18-19,9c-27,45-59,64-107,64c-80,0-136-88-100-159c47-89,166-87,207,4
		c10,22,19,33,19,24c0-27,39-68,74-78c47-12,82-3,116,31c25,24,30,38,30,76c-1,73-42,112-119,112C6600,2560,6585,2553,6561,2529z"/>
	<path d="M7332,2490c-40-24-64-77-56-119c10-47,66-91,115-91c33,0,47,6,75,34s34,41,34,78c0,50-18,82-60,103
		C7401,2515,7371,2514,7332,2490z"/>
	<path d="M2963,2485c-59-25-85-92-58-150c21-42,59-65,111-65c54,0,104,53,104,109c0,51-24,89-67,107C3013,2503,3004,2503,2963,2485z
		"/>
	<path d="M2654,2476c-44-19-64-53-64-104c0-37,6-50,34-78c38-38,85-45,134-20c48,25,70,88,48,139C2781,2474,2712,2502,2654,2476z"/>
	<path d="M3433,2445c-42-18-68-59-67-107l1-39l-26,25c-76,72-191,20-191-87c0-55,52-107,107-107c76,0,135,68,119,138l-7,27l18-21
		c47-56,119-60,169-10c28,28,34,41,34,78c0,52-21,85-66,104C3483,2463,3474,2463,3433,2445z"/>
	<path d="M3689,2426c-36-21-63-79-55-120c8-42,54-85,98-92c101-17,169,110,100,187C3799,2438,3732,2450,3689,2426z"/>
	<path d="M3954,2371c-37-22-59-78-49-119c9-38,53-81,90-88c104-19,177,108,107,187C4066,2392,4000,2401,3954,2371z"/>
	<path d="M6783,2358c-46-12-83-61-83-110c0-32,7-47,34-74c32-32,50-39,86-34c11,1,8-5-8-22c-37-40-45-86-23-130l19-38l-33,6
		c-65,12-135-48-135-116c0-55,57-110,115-110c83,0,146,105,100,166c-21,28-19,29,28,26c106-9,161,126,81,196c-14,13-39,25-54,29
		l-28,5l24,35c27,41,30,72,10,112C6889,2351,6839,2373,6783,2358z"/>
	<path d="M11688,2343c-35-22-52-56-51-99c2-75,73-126,144-105c52,16,79,53,79,108c0,38-5,50-34,79c-27,27-42,34-72,34
		C11732,2360,11703,2352,11688,2343z"/>
	<path d="M7076,2310c-39-12-64-37-75-75c-20-73,29-145,99-145c78,0,120,41,120,117c0,47-22,81-66,99C7117,2322,7116,2322,7076,2310z
		"/>
	<path d="M4243,2286c-53-24-79-86-60-142c7-20,5-21-36-17c-57,7-99-15-122-63c-14-31-15-43-6-75c12-39,52-79,78-79c10,0,4-12-17-36
		c-27-31-31-43-28-78c3-22,8-49,12-58c7-15,3-18-24-18c-75,0-126-81-97-152c51-123,233-77,215,54c-3,18-8,41-13,51c-5,13-3,16,8,11
		c25-9,85,23,107,58c35,55,12,132-47,158l-28,13l28,31c26,27,29,36,25,82l-4,51l46-5c41-4,51-1,79,24c39,36,52,78,37,123
		C4376,2281,4303,2313,4243,2286z"/>
	<path d="M2770,2263c-30-11-70-57-76-89c-8-43,20-100,59-121c45-23,105-12,140,27C2968,2164,2876,2302,2770,2263z"/>
	<path d="M6520,2242c-110-55-73-212,50-212c57,0,110,50,110,104c0,52-25,95-65,112C6571,2264,6562,2264,6520,2242z"/>
	<path d="M7303,2205c-106-46-65-215,52-215c119,0,158,171,50,216C7363,2223,7344,2223,7303,2205z"/>
	<path d="M3028,2184c-53-28-73-101-42-154c46-78,159-78,199,0C3238,2133,3130,2240,3028,2184z"/>
	<path d="M3519,2162c-45-40-52-106-15-149s84-58,128-40c53,23,73,52,73,109c0,43-4,53-33,79C3627,2201,3564,2202,3519,2162z"/>
	<path d="M3798,2164c-76-41-74-159,2-199c57-30,127-10,155,45C4007,2111,3898,2219,3798,2164z"/>
	<path d="M3294,2071c-116-71-15-255,108-197c65,31,85,102,48,164C3417,2091,3351,2106,3294,2071z"/>
	<path d="M2853,2021c-40-25-53-49-53-98c0-121,164-155,216-45C3062,1976,2946,2079,2853,2021z"/>
	<path d="M7034,1964c-77-38-84-148-12-198c66-47,178,13,178,94c0,39-31,88-65,104C7094,1984,7074,1984,7034,1964z"/>
	<path d="M7293,1961c-40-25-53-49-53-98c0-45,20-77,60-98c48-25,86-19,128,19c32,30,37,40,37,80c0,38-5,51-31,77
		C7394,1981,7338,1989,7293,1961z"/>
	<path d="M6454,1951c-68-29-86-126-35-183c26-29,36-33,79-33c40,0,56,5,76,24c73,69,37,186-61,197C6492,1958,6465,1956,6454,1951z"
		/>
	<path d="M3818,1910c-75-58-55-165,36-200c65-24,146,37,146,112c0,32-7,47-34,74c-29,29-41,34-79,34C3858,1930,3834,1923,3818,1910z
		"/>
	<path d="M3593,1903c-12-2-36-20-53-39c-44-50-42-104,4-150c29-29,41-34,79-34c132,0,159,172,34,219c-16,6-31,10-35,10
		C3618,1908,3605,1905,3593,1903z"/>
	<path d="M11294,1876c-29-29-34-41-34-79c0-136,182-159,220-27c19,67-39,140-112,140C11336,1910,11321,1903,11294,1876z"/>
	<path d="M3074,1871c-37-22-59-78-49-119c9-38,53-81,91-88c42-8,100,20,119,57c26,49,19,97-19,135C3176,1896,3124,1902,3074,1871z"
		/>
	<path d="M3322,1794c-59-41-68-117-19-171c30-32,40-36,81-36c37,0,52,5,76,28c76,73,29,195-74,195C3363,1810,3334,1803,3322,1794z"
		/>
	<path d="M11739,1767c-68-45-69-134-4-185c44-35,99-30,141,12c28,28,34,41,34,78c0,50-18,82-60,103
		C11810,1796,11778,1794,11739,1767z"/>
	<path d="M7745,1773c-33-8-74-54-81-90c-20-106,106-177,186-105c54,47,49,143-9,179C7819,1771,7770,1779,7745,1773z"/>
	<path d="M11027,1759c-39-30-53-85-34-131c50-120,217-83,217,48c0,28-8,44-34,70c-29,29-41,34-79,34
		C11067,1780,11044,1773,11027,1759z"/>
	<path d="M6523,1701c-40-25-53-49-53-101c0-34,6-48,34-76c46-46,100-48,149-4c41,35,52,79,33,123C6657,1712,6583,1739,6523,1701z"/>
	<path d="M6806,1679c-104-90,2-247,124-184c106,55,62,215-59,215C6851,1710,6828,1699,6806,1679z"/>
	<path d="M11489,1685c-27-14-59-69-59-100c0-49,67-115,118-115c61,0,112,54,112,121c0,33-6,47-34,75c-27,27-42,34-72,34
		C11532,1699,11503,1693,11489,1685z"/>
	<path d="M7089,1675c-50-27-67-116-31-164c10-14,36-32,58-40c74-26,147,28,146,108c-1,69-46,111-115,111
		C7129,1689,7103,1683,7089,1675z"/>
	<path d="M3760,1659c-63-26-94-91-70-150c19-45,56-69,107-69c38,0,50,5,79,34c26,26,34,42,34,71c0,48-26,91-66,110
		C3807,1672,3795,1673,3760,1659z"/>
	<path d="M11224,1606c-27-27-34-42-34-74c0-73,73-131,140-112c70,20,106,88,80,151c-19,45-56,69-107,69
		C11265,1640,11253,1635,11224,1606z"/>
	<path d="M3124,1566c-101-101,37-254,150-165c58,46,54,142-8,180C3216,1612,3164,1606,3124,1566z"/>
	<path d="M3444,1546c-28-28-34-41-34-78c0-50,18-82,60-103c39-20,69-19,107,5c40,24,56,53,56,104c0,33-6,45-36,73
		C3545,1594,3492,1594,3444,1546z"/>
	<path d="M10807,1559c-39-30-53-85-34-131s56-71,106-70c88,1,137,85,99,167C10953,1579,10857,1599,10807,1559z"/>
	<path d="M11906,1509c-65-19-97-79-76-144c16-49,53-75,107-75c38,0,50,5,79,34c47,47,48,102,2,150C11981,1512,11949,1522,11906,1509
		z"/>
	<path d="M11622,1462c-40-37-49-82-25-130c55-114,213-76,213,52c0,30-7,45-34,72c-29,29-41,34-79,34
		C11662,1490,11646,1484,11622,1462z"/>
	<path d="M6587,1459c-82-64-37-199,67-202c69-2,116,46,116,119c0,28-8,44-34,70c-29,29-41,34-79,34C6627,1480,6604,1473,6587,1459z"
		/>
	<path d="M11048,1463c-63-40-73-126-19-177c52-49,135-42,175,16c26,37,21,103-12,139C11157,1480,11090,1490,11048,1463z"/>
	<path d="M10625,1451c-27-12-51-40-65-75c-15-39,2-88,43-122c26-22,38-25,76-21c132,15,137,209,6,222
		C10663,1458,10636,1456,10625,1451z"/>
	<path d="M6928,1413c-51-32-65-118-27-166c64-82,199-37,202,67C7106,1406,7007,1462,6928,1413z"/>
	<path d="M3684,1386c-29-29-34-41-34-79c0-147,219-150,223-3c2,69-46,116-119,116C3726,1420,3710,1412,3684,1386z"/>
	<path d="M11367,1400c-104-82-1-251,118-194c42,20,65,58,65,110c0,28-8,44-34,70c-29,29-41,34-79,34
		C11408,1420,11384,1413,11367,1400z"/>
	<path d="M3102,1334c-40-20-62-60-62-110c0-52,53-104,107-104c87,0,145,81,110,155C3227,1337,3160,1363,3102,1334z"/>
	<path d="M3373,1318c-78-21-109-119-55-178c53-60,136-55,179,9c27,39,29,71,9,110C3479,1311,3429,1333,3373,1318z"/>
	<path d="M6703,1236c-41-34-58-83-43-122c26-67,90-99,151-74c73,30,94,122,41,181C6812,1266,6746,1273,6703,1236z"/>
	<path d="M10885,1251c-27-11-51-40-65-75c-24-65,37-146,112-146c32,0,47,7,74,34c28,28,34,41,34,78c0,50-18,82-60,103
		C10948,1261,10916,1263,10885,1251z"/>
	<path d="M11138,1231c-29-26-33-36-33-79c0-57,20-86,73-109c44-18,91-3,128,40c22,26,25,38,21,76C11316,1254,11209,1295,11138,1231z
		"/>
	<path d="M11928,1243c-67-43-73-129-12-182c39-35,78-40,124-16c66,34,82,120,32,176C12037,1260,11970,1270,11928,1243z"/>
	<path d="M11624,1196c-26-26-34-42-34-70c0-110,120-164,193-88c73,77,21,192-86,192C11666,1230,11651,1223,11624,1196z"/>
	<path d="M3573,1200c-40-24-53-48-53-100c0-34,6-48,34-76c44-44,99-47,145-9c64,54,59,142-11,185C3647,1225,3614,1225,3573,1200z"/>
	<path d="M10633,1145c-106-46-65-215,52-215c118,0,157,163,51,214C10695,1163,10675,1164,10633,1145z"/>
	<path d="M11377,1129c-82-64-37-199,67-202c69-2,116,46,116,119c0,28-8,44-34,70c-29,29-41,34-79,34
		C11417,1150,11394,1143,11377,1129z"/>
	<path d="M3104,1056c-29-29-34-41-34-79c0-133,172-159,220-33c24,65-37,146-112,146C3146,1090,3131,1083,3104,1056z"/>
	<path d="M11794,982c-61-39-69-120-17-174c76-79,205-14,190,95C11956,984,11864,1025,11794,982z"/>
	<path d="M3378,963c-67-43-73-129-12-182c39-35,78-40,124-16c66,34,82,120,32,176C3487,980,3420,990,3378,963z"/>
	<path d="M11552,914c-97-49-73-196,35-211c112-15,175,113,94,191C11646,928,11595,936,11552,914z"/>
	<path d="M3114,801c-119-72-16-256,110-196c64,31,84,101,46,163C3237,821,3171,836,3114,801z"/>
	<path d="M11671,687c-78-27-99-127-40-186c26-26,38-31,79-31c40,0,53,5,78,30C11875,587,11788,727,11671,687z"/>
	<path d="M3128,523c-63-40-73-126-19-177c76-73,191-20,191,88C3300,514,3196,567,3128,523z"/>
	<path d="M12632,313c-80-39-81-157-2-198c103-53,211,57,153,156c-18,30-67,59-100,59C12673,330,12650,322,12632,313z"/>
	<path d="M3124,196c-29-29-34-41-34-80c0-36,6-52,29-78c43-48,119-48,162,0c23,26,29,42,29,78c0,39-5,51-34,80c-28,28-42,34-76,34
		S3152,224,3124,196z"/>
</g>
</svg>
